# Blender 3.3.0
# www.blender.org
mtllib barrier_11.mtl
o Cylinder
v 0.000000 -0.250000 -4.500000
v 0.000000 0.250000 -4.500000
v 0.056547 -0.250000 -4.499645
v 0.056547 0.250000 -4.499645
v 0.113085 -0.250000 -4.498579
v 0.113085 0.250000 -4.498579
v 0.169606 -0.250000 -4.496802
v 0.169606 0.250000 -4.496802
v 0.226099 -0.250000 -4.494317
v 0.226099 0.250000 -4.494317
v 0.282557 -0.250000 -4.491120
v 0.282557 0.250000 -4.491120
v 0.338971 -0.250000 -4.487215
v 0.338971 0.250000 -4.487215
v 0.395330 -0.250000 -4.482601
v 0.395330 0.250000 -4.482601
v 0.451628 -0.250000 -4.477280
v 0.451628 0.250000 -4.477280
v 4.477280 -0.250000 -0.451628
v 4.477280 0.250000 -0.451628
v 4.482601 -0.250000 -0.395330
v 4.482601 0.250000 -0.395330
v 4.487215 -0.250000 -0.338971
v 4.487215 0.250000 -0.338971
v 4.491120 -0.250000 -0.282557
v 4.491120 0.250000 -0.282557
v 4.494317 -0.250000 -0.226099
v 4.494317 0.250000 -0.226099
v 4.496802 -0.250000 -0.169606
v 4.496802 0.250000 -0.169606
v 4.498579 -0.250000 -0.113085
v 4.498579 0.250000 -0.113085
v 4.499645 -0.250000 -0.056547
v 4.499645 0.250000 -0.056547
v 4.500000 -0.250000 0.000000
v 4.500000 0.250000 0.000000
v 4.499645 -0.250000 0.056547
v 4.499645 0.250000 0.056547
v 4.498579 -0.250000 0.113085
v 4.498579 0.250000 0.113085
v 4.496802 -0.250000 0.169606
v 4.496802 0.250000 0.169606
v 4.494317 -0.250000 0.226099
v 4.494317 0.250000 0.226099
v 4.491120 -0.250000 0.282557
v 4.491120 0.250000 0.282557
v 4.487215 -0.250000 0.338971
v 4.487215 0.250000 0.338971
v 4.482601 -0.250000 0.395330
v 4.482601 0.250000 0.395330
v 4.477280 -0.250000 0.451628
v 4.477280 0.250000 0.451628
v 0.451628 -0.250000 4.477280
v 0.451628 0.250000 4.477280
v 0.395330 -0.250000 4.482601
v 0.395330 0.250000 4.482601
v 0.338971 -0.250000 4.487215
v 0.338971 0.250000 4.487215
v 0.282557 -0.250000 4.491120
v 0.282557 0.250000 4.491120
v 0.226099 -0.250000 4.494317
v 0.226099 0.250000 4.494317
v 0.169606 -0.250000 4.496802
v 0.169606 0.250000 4.496802
v 0.113085 -0.250000 4.498579
v 0.113085 0.250000 4.498579
v 0.056547 -0.250000 4.499645
v 0.056547 0.250000 4.499645
v 0.000000 -0.250000 4.500000
v 0.000000 0.250000 4.500000
v -0.056547 -0.250000 4.499645
v -0.056547 0.250000 4.499645
v -0.113085 -0.250000 4.498579
v -0.113085 0.250000 4.498579
v -0.169606 -0.250000 4.496802
v -0.169606 0.250000 4.496802
v -0.226099 -0.250000 4.494317
v -0.226099 0.250000 4.494317
v -0.282557 -0.250000 4.491120
v -0.282557 0.250000 4.491120
v -0.338971 -0.250000 4.487215
v -0.338971 0.250000 4.487215
v -0.395330 -0.250000 4.482601
v -0.395330 0.250000 4.482601
v -0.451628 -0.250000 4.477280
v -0.451628 0.250000 4.477280
v -4.477280 -0.250000 0.451628
v -4.477280 0.250000 0.451628
v -4.482601 -0.250000 0.395330
v -4.482601 0.250000 0.395330
v -4.487215 -0.250000 0.338971
v -4.487215 0.250000 0.338971
v -4.491120 -0.250000 0.282557
v -4.491120 0.250000 0.282557
v -4.494317 -0.250000 0.226099
v -4.494317 0.250000 0.226099
v -4.496802 -0.250000 0.169606
v -4.496802 0.250000 0.169606
v -4.498579 -0.250000 0.113085
v -4.498579 0.250000 0.113085
v -4.499645 -0.250000 0.056547
v -4.499645 0.250000 0.056547
v -4.500000 -0.250000 0.000000
v -4.500000 0.250000 0.000000
v -4.499645 -0.250000 -0.056547
v -4.499645 0.250000 -0.056547
v -4.498579 -0.250000 -0.113085
v -4.498579 0.250000 -0.113085
v -4.496802 -0.250000 -0.169606
v -4.496802 0.250000 -0.169606
v -4.494317 -0.250000 -0.226099
v -4.494317 0.250000 -0.226099
v -4.491120 -0.250000 -0.282557
v -4.491120 0.250000 -0.282557
v -4.487215 -0.250000 -0.338971
v -4.487215 0.250000 -0.338971
v -4.482601 -0.250000 -0.395330
v -4.482601 0.250000 -0.395330
v -4.477280 -0.250000 -0.451628
v -4.477280 0.250000 -0.451628
v -0.451628 -0.250000 -4.477280
v -0.451628 0.250000 -4.477280
v -0.395330 -0.250000 -4.482601
v -0.395330 0.250000 -4.482601
v -0.338971 -0.250000 -4.487215
v -0.338971 0.250000 -4.487215
v -0.282557 -0.250000 -4.491120
v -0.282557 0.250000 -4.491120
v -0.226099 -0.250000 -4.494317
v -0.226099 0.250000 -4.494317
v -0.169606 -0.250000 -4.496802
v -0.169606 0.250000 -4.496802
v -0.113085 -0.250000 -4.498579
v -0.113085 0.250000 -4.498579
v -0.056547 -0.250000 -4.499645
v -0.056547 0.250000 -4.499645
v 0.500000 0.250000 -4.472093
v 0.500000 -0.250000 -4.472093
v 4.472093 0.250000 -0.500000
v 4.472093 -0.250000 -0.500000
v 0.500000 0.250000 -0.500000
v 0.500000 -0.250000 -0.500000
v -4.472093 0.250000 -0.500000
v -4.472093 -0.250000 -0.500000
v -0.500000 0.250000 -4.472093
v -0.500000 -0.250000 -4.472093
v -0.500000 0.250000 -0.500000
v -0.500000 -0.250000 -0.500000
v -0.500000 0.250000 4.472093
v -0.500000 -0.250000 4.472093
v -4.472093 0.250000 0.500000
v -4.472093 -0.250000 0.500000
v -0.500000 0.250000 0.500000
v -0.500000 -0.250000 0.500000
v 4.472093 0.250000 0.500000
v 4.472093 -0.250000 0.500000
v 0.500000 0.250000 4.472093
v 0.500000 -0.250000 4.472093
v 0.500000 0.250000 0.500000
v 0.500000 -0.250000 0.500000
vn 0.0063 -0.0000 -1.0000
vn 0.0188 -0.0000 -0.9998
vn 0.0314 -0.0000 -0.9995
vn 0.0440 -0.0000 -0.9990
vn 0.0565 -0.0000 -0.9984
vn 0.0691 -0.0000 -0.9976
vn 0.0816 -0.0000 -0.9967
vn 0.0941 -0.0000 -0.9956
vn 0.1066 -0.0000 -0.9943
vn 0.9943 -0.0000 -0.1066
vn 0.9956 -0.0000 -0.0941
vn 0.9967 -0.0000 -0.0816
vn 0.9976 -0.0000 -0.0691
vn 0.9984 -0.0000 -0.0565
vn 0.9990 -0.0000 -0.0440
vn 0.9995 -0.0000 -0.0314
vn 0.9998 -0.0000 -0.0188
vn 1.0000 -0.0000 -0.0063
vn 1.0000 -0.0000 0.0063
vn 0.9998 -0.0000 0.0188
vn 0.9995 -0.0000 0.0314
vn 0.9990 -0.0000 0.0440
vn 0.9984 -0.0000 0.0565
vn 0.9976 -0.0000 0.0691
vn 0.9967 -0.0000 0.0816
vn 0.9956 -0.0000 0.0941
vn 0.9943 -0.0000 0.1066
vn 0.1066 -0.0000 0.9943
vn 0.0941 -0.0000 0.9956
vn 0.0816 -0.0000 0.9967
vn 0.0691 -0.0000 0.9976
vn 0.0565 -0.0000 0.9984
vn 0.0440 -0.0000 0.9990
vn 0.0314 -0.0000 0.9995
vn 0.0188 -0.0000 0.9998
vn 0.0063 -0.0000 1.0000
vn -0.0063 -0.0000 1.0000
vn -0.0188 -0.0000 0.9998
vn -0.0314 -0.0000 0.9995
vn -0.0440 -0.0000 0.9990
vn -0.0565 -0.0000 0.9984
vn -0.0691 -0.0000 0.9976
vn -0.0816 -0.0000 0.9967
vn -0.0941 -0.0000 0.9956
vn -0.1066 -0.0000 0.9943
vn -0.9943 -0.0000 0.1066
vn -0.9956 -0.0000 0.0941
vn -0.9967 -0.0000 0.0816
vn -0.9976 -0.0000 0.0691
vn -0.9984 -0.0000 0.0565
vn -0.9990 -0.0000 0.0440
vn -0.9995 -0.0000 0.0314
vn -0.9998 -0.0000 0.0188
vn -1.0000 -0.0000 0.0063
vn -1.0000 -0.0000 -0.0063
vn -0.9998 -0.0000 -0.0188
vn -0.9995 -0.0000 -0.0314
vn -0.9990 -0.0000 -0.0440
vn -0.9984 -0.0000 -0.0565
vn -0.9976 -0.0000 -0.0691
vn -0.9967 -0.0000 -0.0816
vn -0.9956 -0.0000 -0.0941
vn -0.9943 -0.0000 -0.1066
vn -0.1066 -0.0000 -0.9943
vn -0.0941 -0.0000 -0.9956
vn -0.0816 -0.0000 -0.9967
vn -0.0691 -0.0000 -0.9976
vn -0.0565 -0.0000 -0.9984
vn -0.0440 -0.0000 -0.9990
vn -0.0314 -0.0000 -0.9995
vn -0.0000 1.0000 -0.0000
vn -0.0188 -0.0000 -0.9998
vn -0.0063 -0.0000 -1.0000
vn -0.0000 -1.0000 -0.0000
vn 1.0000 -0.0000 -0.0000
vn -0.0000 -0.0000 -1.0000
vn -1.0000 -0.0000 -0.0000
vn -0.0000 -0.0000 1.0000
vt 1.000000 0.500000
vt 0.000006 0.500000
vt 0.750000 0.490000
vt 1.000000 1.000000
vt 0.250000 0.490000
vt 0.000006 1.000000
vt 0.998000 0.500000
vt 0.753016 0.489981
vt 0.998000 1.000000
vt 0.253016 0.489981
vt 0.996000 0.500000
vt 0.756031 0.489924
vt 0.996000 1.000000
vt 0.256031 0.489924
vt 0.994000 0.500000
vt 0.759046 0.489829
vt 0.994000 1.000000
vt 0.259046 0.489829
vt 0.992000 0.500000
vt 0.762059 0.489697
vt 0.992000 1.000000
vt 0.262059 0.489697
vt 0.990000 0.500000
vt 0.765070 0.489526
vt 0.990000 1.000000
vt 0.265070 0.489526
vt 0.988000 0.500000
vt 0.768078 0.489318
vt 0.988000 1.000000
vt 0.268078 0.489318
vt 0.986000 0.500000
vt 0.771084 0.489072
vt 0.986000 1.000000
vt 0.271084 0.489072
vt 0.984000 0.500000
vt 0.774087 0.488788
vt 0.984000 1.000000
vt 0.274087 0.488788
vt 0.766003 0.500000
vt 0.988788 0.274087
vt 0.766003 1.000000
vt 0.488788 0.274087
vt 0.764003 0.500000
vt 0.989072 0.271084
vt 0.764003 1.000000
vt 0.489072 0.271084
vt 0.762003 0.500000
vt 0.989318 0.268078
vt 0.762003 1.000000
vt 0.489318 0.268078
vt 0.760003 0.500000
vt 0.989526 0.265070
vt 0.760003 1.000000
vt 0.489526 0.265070
vt 0.758003 0.500000
vt 0.989697 0.262059
vt 0.758003 1.000000
vt 0.489697 0.262059
vt 0.756003 0.500000
vt 0.989829 0.259046
vt 0.756003 1.000000
vt 0.489829 0.259046
vt 0.754003 0.500000
vt 0.989924 0.256031
vt 0.754003 1.000000
vt 0.489924 0.256031
vt 0.752003 0.500000
vt 0.989981 0.253016
vt 0.752003 1.000000
vt 0.489981 0.253016
vt 0.750003 0.500000
vt 0.990000 0.250000
vt 0.750003 1.000000
vt 0.490000 0.250000
vt 0.748003 0.500000
vt 0.989981 0.246984
vt 0.748003 1.000000
vt 0.489981 0.246984
vt 0.746003 0.500000
vt 0.989924 0.243969
vt 0.746003 1.000000
vt 0.489924 0.243969
vt 0.744003 0.500000
vt 0.989829 0.240954
vt 0.744003 1.000000
vt 0.489829 0.240954
vt 0.742003 0.500000
vt 0.989697 0.237941
vt 0.742003 1.000000
vt 0.489697 0.237941
vt 0.740003 0.500000
vt 0.989526 0.234930
vt 0.740003 1.000000
vt 0.489526 0.234930
vt 0.738003 0.500000
vt 0.989318 0.231922
vt 0.738003 1.000000
vt 0.489318 0.231922
vt 0.736003 0.500000
vt 0.989072 0.228916
vt 0.736003 1.000000
vt 0.489072 0.228916
vt 0.734003 0.500000
vt 0.988788 0.225913
vt 0.734003 1.000000
vt 0.488788 0.225913
vt 0.516006 0.500000
vt 0.774087 0.011212
vt 0.516006 1.000000
vt 0.274087 0.011212
vt 0.514006 0.500000
vt 0.771084 0.010928
vt 0.514006 1.000000
vt 0.271084 0.010928
vt 0.512006 0.500000
vt 0.768078 0.010682
vt 0.512006 1.000000
vt 0.268078 0.010682
vt 0.510006 0.500000
vt 0.765070 0.010474
vt 0.510006 1.000000
vt 0.265070 0.010474
vt 0.508006 0.500000
vt 0.762059 0.010303
vt 0.508006 1.000000
vt 0.262059 0.010303
vt 0.506006 0.500000
vt 0.759046 0.010171
vt 0.506006 1.000000
vt 0.259046 0.010171
vt 0.504006 0.500000
vt 0.756031 0.010076
vt 0.504006 1.000000
vt 0.256031 0.010076
vt 0.502006 0.500000
vt 0.753016 0.010019
vt 0.502006 1.000000
vt 0.253016 0.010019
vt 0.500006 0.500000
vt 0.750000 0.010000
vt 0.500006 1.000000
vt 0.250000 0.010000
vt 0.498006 0.500000
vt 0.746984 0.010019
vt 0.498006 1.000000
vt 0.246984 0.010019
vt 0.496006 0.500000
vt 0.743969 0.010076
vt 0.496006 1.000000
vt 0.243969 0.010076
vt 0.494006 0.500000
vt 0.740954 0.010171
vt 0.494006 1.000000
vt 0.240954 0.010171
vt 0.492006 0.500000
vt 0.737941 0.010303
vt 0.492006 1.000000
vt 0.237941 0.010303
vt 0.490006 0.500000
vt 0.734930 0.010474
vt 0.490006 1.000000
vt 0.234930 0.010474
vt 0.488006 0.500000
vt 0.731922 0.010682
vt 0.488006 1.000000
vt 0.231922 0.010682
vt 0.486006 0.500000
vt 0.728916 0.010928
vt 0.486006 1.000000
vt 0.228916 0.010928
vt 0.484006 0.500000
vt 0.725913 0.011212
vt 0.484006 1.000000
vt 0.225913 0.011212
vt 0.266006 0.500000
vt 0.511212 0.225913
vt 0.266006 1.000000
vt 0.011212 0.225913
vt 0.264006 0.500000
vt 0.510928 0.228916
vt 0.264006 1.000000
vt 0.010928 0.228916
vt 0.262006 0.500000
vt 0.510682 0.231922
vt 0.262006 1.000000
vt 0.010682 0.231922
vt 0.260006 0.500000
vt 0.510474 0.234930
vt 0.260006 1.000000
vt 0.010474 0.234930
vt 0.258006 0.500000
vt 0.510303 0.237941
vt 0.258006 1.000000
vt 0.010303 0.237941
vt 0.256006 0.500000
vt 0.510171 0.240954
vt 0.256006 1.000000
vt 0.010171 0.240954
vt 0.254006 0.500000
vt 0.510076 0.243969
vt 0.254006 1.000000
vt 0.010076 0.243969
vt 0.252006 0.500000
vt 0.510019 0.246984
vt 0.252006 1.000000
vt 0.010019 0.246984
vt 0.250006 0.500000
vt 0.510000 0.250000
vt 0.250006 1.000000
vt 0.010000 0.250000
vt 0.248006 0.500000
vt 0.510019 0.253016
vt 0.248006 1.000000
vt 0.010019 0.253016
vt 0.246006 0.500000
vt 0.510076 0.256031
vt 0.246006 1.000000
vt 0.010076 0.256031
vt 0.244006 0.500000
vt 0.510171 0.259046
vt 0.244006 1.000000
vt 0.010171 0.259046
vt 0.242006 0.500000
vt 0.510303 0.262059
vt 0.242006 1.000000
vt 0.010303 0.262059
vt 0.240006 0.500000
vt 0.510474 0.265070
vt 0.240006 1.000000
vt 0.010474 0.265070
vt 0.238006 0.500000
vt 0.510682 0.268078
vt 0.238006 1.000000
vt 0.010682 0.268078
vt 0.236006 0.500000
vt 0.510928 0.271084
vt 0.236006 1.000000
vt 0.010928 0.271084
vt 0.234006 0.500000
vt 0.511212 0.274087
vt 0.234006 1.000000
vt 0.011212 0.274087
vt 0.016006 0.500000
vt 0.725913 0.488788
vt 0.016006 1.000000
vt 0.225913 0.488788
vt 0.014006 0.500000
vt 0.728916 0.489072
vt 0.014006 1.000000
vt 0.228916 0.489072
vt 0.012006 0.500000
vt 0.731922 0.489318
vt 0.012006 1.000000
vt 0.231922 0.489318
vt 0.010006 0.500000
vt 0.734930 0.489526
vt 0.010006 1.000000
vt 0.234930 0.489526
vt 0.008006 0.500000
vt 0.737941 0.489697
vt 0.008006 1.000000
vt 0.237941 0.489697
vt 0.006006 0.500000
vt 0.740954 0.489829
vt 0.006006 1.000000
vt 0.240954 0.489829
vt 0.004006 0.500000
vt 0.743969 0.489924
vt 0.243969 0.489924
vt 0.004006 1.000000
vt 0.002006 0.500000
vt 0.746984 0.489981
vt 0.246984 0.489981
vt 0.002006 1.000000
vt 0.982280 1.000000
vt 0.276667 0.488512
vt 0.531250 0.165504
vt 0.982280 0.500000
vt 0.776667 0.488512
vt 0.468750 0.165504
vt 0.767724 1.000000
vt 0.488512 0.276667
vt 0.531250 0.834496
vt 0.767724 0.500000
vt 0.988512 0.276667
vt 0.468750 0.834496
vt 0.276667 0.276667
vt 0.531250 0.000000
vt 0.531250 1.000000
vt 0.776666 0.276666
vt 0.468750 0.000000
vt 0.468750 1.000000
vt 0.232285 1.000000
vt 0.011488 0.276667
vt 0.531250 0.915504
vt 0.232285 0.500000
vt 0.511488 0.276667
vt 0.468750 0.915504
vt 0.017726 1.000000
vt 0.223333 0.488512
vt 0.531250 0.584496
vt 0.017726 0.500000
vt 0.723333 0.488512
vt 0.468750 0.584496
vt 0.223333 0.276667
vt 0.531250 0.750000
vt 0.723333 0.276666
vt 0.468750 0.750000
vt 0.482286 1.000000
vt 0.223333 0.011488
vt 0.531250 0.665504
vt 0.482286 0.500000
vt 0.723333 0.011488
vt 0.468750 0.665504
vt 0.267727 1.000000
vt 0.011488 0.223333
vt 0.531250 0.334496
vt 0.267727 0.500000
vt 0.511488 0.223333
vt 0.468750 0.334496
vt 0.223333 0.223333
vt 0.531250 0.500000
vt 0.723333 0.223333
vt 0.468750 0.500000
vt 0.732283 1.000000
vt 0.488512 0.223333
vt 0.531250 0.415504
vt 0.732283 0.500000
vt 0.988512 0.223333
vt 0.468750 0.415504
vt 0.517727 1.000000
vt 0.276667 0.011488
vt 0.531250 0.084496
vt 0.517727 0.500000
vt 0.776667 0.011488
vt 0.468750 0.084496
vt 0.276667 0.223333
vt 0.531250 0.250000
vt 0.776667 0.223333
vt 0.468750 0.250000
s 0
usemtl 
f 1/1/1 2/4/1 4/9/1 3/7/1
f 3/7/2 4/9/2 6/13/2 5/11/2
f 5/11/3 6/13/3 8/17/3 7/15/3
f 7/15/4 8/17/4 10/21/4 9/19/4
f 9/19/5 10/21/5 12/25/5 11/23/5
f 11/23/6 12/25/6 14/29/6 13/27/6
f 13/27/7 14/29/7 16/33/7 15/31/7
f 15/31/8 16/33/8 18/37/8 17/35/8
f 17/35/9 18/37/9 137/275/9 138/278/9
f 20/41/10 19/39/10 140/284/10 139/281/10
f 19/39/11 20/41/11 22/45/11 21/43/11
f 21/43/12 22/45/12 24/49/12 23/47/12
f 23/47/13 24/49/13 26/53/13 25/51/13
f 25/51/14 26/53/14 28/57/14 27/55/14
f 27/55/15 28/57/15 30/61/15 29/59/15
f 29/59/16 30/61/16 32/65/16 31/63/16
f 31/63/17 32/65/17 34/69/17 33/67/17
f 33/67/18 34/69/18 36/73/18 35/71/18
f 35/71/19 36/73/19 38/77/19 37/75/19
f 37/75/20 38/77/20 40/81/20 39/79/20
f 39/79/21 40/81/21 42/85/21 41/83/21
f 41/83/22 42/85/22 44/89/22 43/87/22
f 43/87/23 44/89/23 46/93/23 45/91/23
f 45/91/24 46/93/24 48/97/24 47/95/24
f 47/95/25 48/97/25 50/101/25 49/99/25
f 49/99/26 50/101/26 52/105/26 51/103/26
f 156/328/27 51/103/27 52/105/27 155/325/27
f 54/109/28 53/107/28 158/334/28 157/331/28
f 53/107/29 54/109/29 56/113/29 55/111/29
f 55/111/30 56/113/30 58/117/30 57/115/30
f 57/115/31 58/117/31 60/121/31 59/119/31
f 59/119/32 60/121/32 62/125/32 61/123/32
f 61/123/33 62/125/33 64/129/33 63/127/33
f 63/127/34 64/129/34 66/133/34 65/131/34
f 65/131/35 66/133/35 68/137/35 67/135/35
f 67/135/36 68/137/36 70/141/36 69/139/36
f 69/139/37 70/141/37 72/145/37 71/143/37
f 71/143/38 72/145/38 74/149/38 73/147/38
f 73/147/39 74/149/39 76/153/39 75/151/39
f 75/151/40 76/153/40 78/157/40 77/155/40
f 77/155/41 78/157/41 80/161/41 79/159/41
f 79/159/42 80/161/42 82/165/42 81/163/42
f 81/163/43 82/165/43 84/169/43 83/167/43
f 83/167/44 84/169/44 86/173/44 85/171/44
f 150/312/45 85/171/45 86/173/45 149/309/45
f 151/315/46 88/177/46 87/175/46 152/318/46
f 87/175/47 88/177/47 90/181/47 89/179/47
f 89/179/48 90/181/48 92/185/48 91/183/48
f 91/183/49 92/185/49 94/189/49 93/187/49
f 93/187/50 94/189/50 96/193/50 95/191/50
f 95/191/51 96/193/51 98/197/51 97/195/51
f 97/195/52 98/197/52 100/201/52 99/199/52
f 99/199/53 100/201/53 102/205/53 101/203/53
f 101/203/54 102/205/54 104/209/54 103/207/54
f 103/207/55 104/209/55 106/213/55 105/211/55
f 105/211/56 106/213/56 108/217/56 107/215/56
f 107/215/57 108/217/57 110/221/57 109/219/57
f 109/219/58 110/221/58 112/225/58 111/223/58
f 111/223/59 112/225/59 114/229/59 113/227/59
f 113/227/60 114/229/60 116/233/60 115/231/60
f 115/231/61 116/233/61 118/237/61 117/235/61
f 117/235/62 118/237/62 120/241/62 119/239/62
f 119/239/63 120/241/63 143/293/63 144/296/63
f 145/299/64 122/245/64 121/243/64 146/302/64
f 121/243/65 122/245/65 124/249/65 123/247/65
f 123/247/66 124/249/66 126/253/66 125/251/66
f 125/251/67 126/253/67 128/257/67 127/255/67
f 127/255/68 128/257/68 130/261/68 129/259/68
f 129/259/69 130/261/69 132/265/69 131/263/69
f 131/263/70 132/265/70 134/270/70 133/267/70
f 155/326/71 52/106/71 50/102/71 48/98/71 46/94/71 44/90/71 42/86/71 40/82/71 38/78/71 36/74/71 34/70/71 32/66/71 30/62/71 28/58/71 26/54/71 24/50/71 22/46/71 20/42/71 139/282/71 141/287/71 137/276/71 18/38/71 16/34/71 14/30/71 12/26/71 10/22/71 8/18/71 6/14/71 4/10/71 2/5/71 136/273/71 134/269/71 132/266/71 130/262/71 128/258/71 126/254/71 124/250/71 122/246/71 145/300/71 147/305/71 143/294/71 120/242/71 118/238/71 116/234/71 114/230/71 112/226/71 110/222/71 108/218/71 106/214/71 104/210/71 102/206/71 100/202/71 98/198/71 96/194/71 94/190/71 92/186/71 90/182/71 88/178/71 151/316/71 153/321/71 149/310/71 86/174/71 84/170/71 82/166/71 80/162/71 78/158/71 76/154/71 74/150/71 72/146/71 70/142/71 68/138/71 66/134/71 64/130/71 62/126/71 60/122/71 58/118/71 56/114/71 54/110/71 157/332/71 159/337/71
f 133/267/72 134/270/72 136/274/72 135/271/72
f 135/271/73 136/274/73 2/6/73 1/2/73
f 158/335/74 53/108/74 55/112/74 57/116/74 59/120/74 61/124/74 63/128/74 65/132/74 67/136/74 69/140/74 71/144/74 73/148/74 75/152/74 77/156/74 79/160/74 81/164/74 83/168/74 85/172/74 150/313/74 154/323/74 152/319/74 87/176/74 89/180/74 91/184/74 93/188/74 95/192/74 97/196/74 99/200/74 101/204/74 103/208/74 105/212/74 107/216/74 109/220/74 111/224/74 113/228/74 115/232/74 117/236/74 119/240/74 144/297/74 148/307/74 146/303/74 121/244/74 123/248/74 125/252/74 127/256/74 129/260/74 131/264/74 133/268/74 135/272/74 1/3/74 3/8/74 5/12/74 7/16/74 9/20/74 11/24/74 13/28/74 15/32/74 17/36/74 138/279/74 142/290/74 140/285/74 19/40/74 21/44/74 23/48/74 25/52/74 27/56/74 29/60/74 31/64/74 33/68/74 35/72/74 37/76/74 39/80/74 41/84/74 43/88/74 45/92/74 47/96/74 49/100/74 51/104/74 156/329/74 160/339/74
f 138/280/75 137/277/75 141/288/75 142/291/75
f 140/286/76 142/292/76 141/289/76 139/283/76
f 146/304/77 148/308/77 147/306/77 145/301/77
f 143/295/76 147/306/76 148/308/76 144/298/76
f 151/317/78 152/320/78 154/324/78 153/322/78
f 149/311/77 153/322/77 154/324/77 150/314/77
f 157/333/75 158/336/75 160/340/75 159/338/75
f 156/330/78 155/327/78 159/338/78 160/340/78
